# 

mtllib Komakan.mtl

v 95 360 4.637133
v -95 360 4.63715
v -95 300 4.63715
v 95 300 4.637133
v 95 360 -0.3628671
v 95 360 4.637133
v 95 300 4.637133
v 95 300 -0.3628671
v -95 360 -0.3628505
v -95 360 4.63715
v -95 300 4.63715
v -95 300 -0.3628505
v 95 359.5 -0.3628671
v -95 359.5 -0.3628505
v -95 359.5 4.63715
v 95 359.5 4.637133
v 95 300.5 -0.3628671
v -95 300.5 -0.3628505
v -95 300.5 4.63715
v 95 300.5 4.637133
v 95 405 2.637133
v 93 405 2.637133
v 93 405 4.637133
v 95 405 4.637133
v 95 405 2.637133
v 95 405 4.637133
v 95 360 4.637133
v 95 360 2.637133
v 93 405 4.637133
v 93 405 2.637133
v 93 360 2.637133
v 93 360 4.637133
v 95 405 4.637133
v 93 405 4.637133
v 93 360 4.637133
v 95 360 4.637133
v -93 405 2.637149
v -95 405 2.63715
v -95 405 4.63715
v -93 405 4.637149
v -95 405 2.63715
v -95 405 4.63715
v -95 360 4.63715
v -95 360 2.63715
v -93 405 2.637149
v -93 405 4.637149
v -93 360 4.637149
v -93 360 2.637149
v -93 405 4.637149
v -95 405 4.63715
v -95 360 4.63715
v -93 360 4.637149
v -95 360 0
v 95 360 0
v 95 300 0
v -95 300 0
v -95 360 5
v -95 360 0
v -95 300 0
v -95 300 5
v 95 360 5
v 95 360 0
v 95 300 0
v 95 300 5
v -95 359.5 5
v 95 359.5 5
v 95 359.5 0
v -95 359.5 0
v -95 300.5 5
v 95 300.5 5
v 95 300.5 0
v -95 300.5 0
v -95 405 2
v -93 405 2
v -93 405 0
v -95 405 0
v -95 405 2
v -95 405 0
v -95 360 0
v -95 360 2
v -93 405 0
v -93 405 2
v -93 360 2
v -93 360 0
v -95 405 0
v -93 405 0
v -93 360 0
v -95 360 0
v 93 405 2
v 95 405 2
v 95 405 0
v 93 405 0
v 95 405 2
v 95 405 0
v 95 360 0
v 95 360 2
v 93 405 2
v 93 405 0
v 93 360 0
v 93 360 2
v 93 405 0
v 95 405 0
v 95 360 0
v 93 360 0

vt 0 0
vt 1 0
vt 1 1
vt 0 1
vt 0 0
vt 0 0
vt 0 0
vt 0 0
vt 0 0
vt 0 0
vt 0 0
vt 0 0
vt 0 0
vt 0 0
vt 0 0
vt 0 0
vt 0 0
vt 0 0
vt 0 0
vt 0 0
vt 0 0
vt 0 0
vt 0 0
vt 0 0
vt 0 0
vt 0 0
vt 0 0
vt 0 0
vt 0 0
vt 0 0
vt 0 0
vt 0 0
vt 0 0
vt 0 0
vt 0 0
vt 0 0
vt 0 0
vt 0 0
vt 0 0
vt 0 0
vt 0 0
vt 0 0
vt 0 0
vt 0 0
vt 0 0
vt 0 0
vt 0 0
vt 0 0
vt 0 0
vt 0 0
vt 0 0
vt 0 0
vt 0 0
vt 1 0
vt 1 1
vt 0 1
vt 0 0
vt 0 0
vt 0 0
vt 0 0
vt 0 0
vt 0 0
vt 0 0
vt 0 0
vt 0 0
vt 0 0
vt 0 0
vt 0 0
vt 0 0
vt 0 0
vt 0 0
vt 0 0
vt 0 0
vt 0 0
vt 0 0
vt 0 0
vt 0 0
vt 0 0
vt 0 0
vt 0 0
vt 0 0
vt 0 0
vt 0 0
vt 0 0
vt 0 0
vt 0 0
vt 0 0
vt 0 0
vt 0 0
vt 0 0
vt 0 0
vt 0 0
vt 0 0
vt 0 0
vt 0 0
vt 0 0
vt 0 0
vt 0 0
vt 0 0
vt 0 0
vt 0 0
vt 0 0
vt 0 0
vt 0 0

vn 8.742278E-08 0 1
vn 8.742278E-08 0 1
vn 8.742278E-08 0 1
vn 8.742278E-08 0 1
vn 1 0 -8.742278E-08
vn 1 0 -8.742278E-08
vn 1 0 -8.742278E-08
vn 1 0 -8.742278E-08
vn 1 0 -8.742278E-08
vn 1 0 -8.742278E-08
vn 1 0 -8.742278E-08
vn 1 0 -8.742278E-08
vn 0 1 0
vn 0 1 0
vn 0 1 0
vn 0 1 0
vn 0 1 0
vn 0 1 0
vn 0 1 0
vn 0 1 0
vn 0 1 0
vn 0 1 0
vn 0 1 0
vn 0 1 0
vn 1 0 -8.742278E-08
vn 1 0 -8.742278E-08
vn 1 0 -8.742278E-08
vn 1 0 -8.742278E-08
vn -1 0 8.742278E-08
vn -1 0 8.742278E-08
vn -1 0 8.742278E-08
vn -1 0 8.742278E-08
vn 8.742278E-08 0 1
vn 8.742278E-08 0 1
vn 8.742278E-08 0 1
vn 8.742278E-08 0 1
vn 0 1 0
vn 0 1 0
vn 0 1 0
vn 0 1 0
vn 1 0 -8.742278E-08
vn 1 0 -8.742278E-08
vn 1 0 -8.742278E-08
vn 1 0 -8.742278E-08
vn 1 0 -8.742278E-08
vn 1 0 -8.742278E-08
vn 1 0 -8.742278E-08
vn 1 0 -8.742278E-08
vn 8.742278E-08 0 1
vn 8.742278E-08 0 1
vn 8.742278E-08 0 1
vn 8.742278E-08 0 1
vn 0 0 -1
vn 0 0 -1
vn 0 0 -1
vn 0 0 -1
vn -1 0 0
vn -1 0 0
vn -1 0 0
vn -1 0 0
vn -1 0 0
vn -1 0 0
vn -1 0 0
vn -1 0 0
vn 0 1 0
vn 0 1 0
vn 0 1 0
vn 0 1 0
vn 0 1 0
vn 0 1 0
vn 0 1 0
vn 0 1 0
vn 0 1 0
vn 0 1 0
vn 0 1 0
vn 0 1 0
vn -1 0 0
vn -1 0 0
vn -1 0 0
vn -1 0 0
vn 1 0 0
vn 1 0 0
vn 1 0 0
vn 1 0 0
vn 0 0 -1
vn 0 0 -1
vn 0 0 -1
vn 0 0 -1
vn 0 1 0
vn 0 1 0
vn 0 1 0
vn 0 1 0
vn -1 0 0
vn -1 0 0
vn -1 0 0
vn -1 0 0
vn -1 0 0
vn -1 0 0
vn -1 0 0
vn -1 0 0
vn 0 0 -1
vn 0 0 -1
vn 0 0 -1
vn 0 0 -1

g obj1
usemtl m0
f 1/1/1 2/2/2 3/3/3
f 1/1/1 3/3/3 4/4/4
usemtl m1
f 5/5/5 6/6/6 7/7/7
f 5/5/5 7/7/7 8/8/8
usemtl m2
f 9/9/9 10/10/10 11/11/11
f 9/9/9 11/11/11 12/12/12
usemtl m3
f 13/13/13 14/14/14 15/15/15
f 13/13/13 15/15/15 16/16/16
usemtl m4
f 17/17/17 18/18/18 19/19/19
f 17/17/17 19/19/19 20/20/20
usemtl m5
f 21/21/21 22/22/22 23/23/23
f 21/21/21 23/23/23 24/24/24
usemtl m6
f 25/25/25 26/26/26 27/27/27
f 25/25/25 27/27/27 28/28/28
usemtl m7
f 29/29/29 30/30/30 31/31/31
f 29/29/29 31/31/31 32/32/32
usemtl m8
f 33/33/33 34/34/34 35/35/35
f 33/33/33 35/35/35 36/36/36
usemtl m9
f 37/37/37 38/38/38 39/39/39
f 37/37/37 39/39/39 40/40/40
usemtl m10
f 41/41/41 42/42/42 43/43/43
f 41/41/41 43/43/43 44/44/44
usemtl m11
f 45/45/45 46/46/46 47/47/47
f 45/45/45 47/47/47 48/48/48
usemtl m12
f 49/49/49 50/50/50 51/51/51
f 49/49/49 51/51/51 52/52/52
usemtl m13
f 53/53/53 54/54/54 55/55/55
f 53/53/53 55/55/55 56/56/56
usemtl m14
f 57/57/57 58/58/58 59/59/59
f 57/57/57 59/59/59 60/60/60
usemtl m15
f 61/61/61 62/62/62 63/63/63
f 61/61/61 63/63/63 64/64/64
usemtl m16
f 65/65/65 66/66/66 67/67/67
f 65/65/65 67/67/67 68/68/68
usemtl m17
f 69/69/69 70/70/70 71/71/71
f 69/69/69 71/71/71 72/72/72
usemtl m18
f 73/73/73 74/74/74 75/75/75
f 73/73/73 75/75/75 76/76/76
usemtl m19
f 77/77/77 78/78/78 79/79/79
f 77/77/77 79/79/79 80/80/80
usemtl m20
f 81/81/81 82/82/82 83/83/83
f 81/81/81 83/83/83 84/84/84
usemtl m21
f 85/85/85 86/86/86 87/87/87
f 85/85/85 87/87/87 88/88/88
usemtl m22
f 89/89/89 90/90/90 91/91/91
f 89/89/89 91/91/91 92/92/92
usemtl m23
f 93/93/93 94/94/94 95/95/95
f 93/93/93 95/95/95 96/96/96
usemtl m24
f 97/97/97 98/98/98 99/99/99
f 97/97/97 99/99/99 100/100/100
usemtl m25
f 101/101/101 102/102/102 103/103/103
f 101/101/101 103/103/103 104/104/104
